STARTFONT 2.1
FONT -Monotype-Plantin-Bold-R-Normal--36-360-75-75-P-220-iso8859-5
SIZE 36 75 75
FONTBOUNDINGBOX 47 42 -3 -8

STARTPROPERTIES 24
FOUNDRY "Monotype"
FAMILY_NAME "Plantin"
WEIGHT_NAME "Bold"
SLANT "R"
SETWIDTH_NAME "Normal"
ADD_STYLE_NAME ""
PIXEL_SIZE 36
POINT_SIZE 360
RESOLUTION_X 75
RESOLUTION_Y 75
SPACING "P"
AVERAGE_WIDTH 220
CHARSET_REGISTRY "iso8859"
CHARSET_ENCODING "5"
FACE_NAME "Plantin Bold ISO Latin Cyrillic"
_DEC_DEVICE_FONTNAMES "PS=plantin-b-latcyrillic"
COPYRIGHT "Copyright (c) 1993 Monotype Typography Ltd."
CAP_HEIGHT 28
X_HEIGHT 18
WEIGHT 10
QUAD_WIDTH 27
DEFAULT_CHAR 160
FONT_DESCENT 8
FONT_ASCENT 34
ENDPROPERTIES

CHARS 191

STARTCHAR space
ENCODING 32
SWIDTH 250 0
DWIDTH 10 0
BBX 0 0 0 0
BITMAP
ENDCHAR

STARTCHAR exclam
ENCODING 33
SWIDTH 344 0
DWIDTH 13 0
BBX 7 26 3 0
BITMAP
FC
FC
FC
FC
FC
FC
FC
FC
78
78
78
78
78
78
30
30
00
00
00
38
7C
FE
FE
FE
7C
38
ENDCHAR

STARTCHAR quotedbl
ENCODING 34
SWIDTH 552 0
DWIDTH 21 0
BBX 14 13 3 13
BITMAP
7038
F87C
F87C
F87C
F87C
F87C
F87C
7038
7038
7038
7030
2010
2010
ENDCHAR

STARTCHAR numbersign
ENCODING 35
SWIDTH 500 0
DWIDTH 19 0
BBX 17 26 1 0
BITMAP
030300
030300
070700
070700
060600
060600
060600
0E0E00
FFFF80
FFFF80
0C0C00
0C1C00
1C1C00
1C1C00
1C1800
181800
FFFF80
FFFF80
383800
303000
303000
307000
707000
707000
606000
606000
ENDCHAR

STARTCHAR dollar
ENCODING 36
SWIDTH 521 0
DWIDTH 20 0
BBX 16 30 2 -3
BITMAP
0180
03C0
1FF0
3DBC
799E
F19E
F18E
F98E
F980
FF80
FF80
7FC0
7FE0
3FF8
0FFC
07FE
01FE
01FF
01BF
019F
018F
E18F
F18F
F18F
F99E
7FFC
1FF0
0180
0180
0180
ENDCHAR

STARTCHAR percent
ENCODING 37
SWIDTH 927 0
DWIDTH 35 0
BBX 34 28 1 -2
BITMAP
1FC001E000
3DE001E000
78F003C000
78F0038000
F8F8078000
F8F80F0000
F8F80E0000
F8F81E0000
F8F81C0000
F8F83C0000
78F0780000
78F0700000
3DE0F00000
0F81E00000
0001E07C00
0003C1EF00
000383C780
000783C780
000F07C7C0
000F07C7C0
001E07C7C0
001C07C7C0
003C07C7C0
007807C7C0
007003C780
00F003C780
01E001EF00
03E0007C00
ENDCHAR

STARTCHAR ampersand
ENCODING 38
SWIDTH 781 0
DWIDTH 30 0
BBX 28 26 0 0
BITMAP
003F0000
007FC000
01E3C000
03C1E000
07C0E000
07E0E000
07F1C000
03FB8000
03FF0000
01FE07F0
00FF07F0
01FF83E0
03BF83C0
0F3FC380
1E1FE300
3C0FF600
7C07FE00
7C03FC00
FE01FC00
FE01FE00
FF00FE00
FF80FF00
7FC3BF80
3FFF3FE0
1FFC1FF0
07E007F0
ENDCHAR

STARTCHAR quoteright
ENCODING 39
SWIDTH 344 0
DWIDTH 13 0
BBX 7 12 3 14
BITMAP
78
FC
FE
FE
FE
7E
0E
0E
1C
3C
F0
E0
ENDCHAR

STARTCHAR parenleft
ENCODING 40
SWIDTH 417 0
DWIDTH 16 0
BBX 12 33 3 -7
BITMAP
0070
00E0
01C0
03C0
0780
0F00
1E00
1E00
3C00
3C00
7C00
7C00
7800
F800
F800
F800
F800
F800
F800
F800
7800
7C00
7C00
3C00
3E00
1E00
1E00
0F00
0780
03C0
01C0
00F0
0060
ENDCHAR

STARTCHAR parenright
ENCODING 41
SWIDTH 417 0
DWIDTH 16 0
BBX 12 33 0 -7
BITMAP
E000
7000
3800
1C00
1E00
0F00
0780
0780
03C0
03C0
03E0
01E0
01E0
01F0
01F0
01F0
01F0
01F0
01F0
01F0
01E0
03E0
03E0
03C0
03C0
0780
0780
0F00
1E00
3C00
3800
F000
6000
ENDCHAR

STARTCHAR asterisk
ENCODING 42
SWIDTH 510 0
DWIDTH 19 0
BBX 17 17 1 9
BITMAP
00C000
01C000
01C000
01C000
01C000
01E080
FFFF80
FFFF80
3FFE00
0FFC00
07F000
07F800
0FF800
0F3C00
1E1C00
1C0E00
080400
ENDCHAR

STARTCHAR plus
ENCODING 43
SWIDTH 667 0
DWIDTH 25 0
BBX 20 20 3 3
BITMAP
00F000
00F000
00F000
00F000
00F000
00F000
00F000
00F000
FFFFF0
FFFFF0
FFFFF0
FFFFF0
00F000
00F000
00F000
00F000
00F000
00F000
00F000
00F000
ENDCHAR

STARTCHAR comma
ENCODING 44
SWIDTH 344 0
DWIDTH 13 0
BBX 8 14 3 -7
BITMAP
38
7E
7E
FF
7F
7F
1F
07
07
06
0E
3C
F8
60
ENDCHAR

STARTCHAR minus
ENCODING 45
SWIDTH 667 0
DWIDTH 25 0
BBX 21 4 2 11
BITMAP
FFFFF8
FFFFF8
FFFFF8
FFFFF8
ENDCHAR

STARTCHAR period
ENCODING 46
SWIDTH 344 0
DWIDTH 13 0
BBX 7 7 3 0
BITMAP
38
7C
FE
FE
FE
7C
38
ENDCHAR

STARTCHAR slash
ENCODING 47
SWIDTH 281 0
DWIDTH 11 0
BBX 11 27 0 -1
BITMAP
00E0
00C0
00C0
01C0
0180
0180
0380
0300
0300
0700
0600
0600
0E00
0E00
0C00
0C00
1C00
1800
1800
3800
3000
3000
7000
6000
6000
E000
C000
ENDCHAR

STARTCHAR zero
ENCODING 48
SWIDTH 521 0
DWIDTH 20 0
BBX 17 25 1 0
BITMAP
03E000
0FF800
1E3C00
3C1E00
3C1E00
7C1F00
780F00
F80F80
F80F80
F80F80
F80F80
F80F80
F80F80
F80F80
F80F80
F80F80
F80F80
780F80
7C0F00
7C1F00
3C1E00
1C1E00
1E3C00
07F800
03E000
ENDCHAR

STARTCHAR one
ENCODING 49
SWIDTH 521 0
DWIDTH 20 0
BBX 13 25 4 0
BITMAP
0380
0780
1F80
7F80
FF80
3F80
0F80
0F80
0F80
0F80
0F80
0F80
0F80
0F80
0F80
0F80
0F80
0F80
0F80
0F80
0F80
0F80
0F80
3FE0
FFF8
ENDCHAR

STARTCHAR two
ENCODING 50
SWIDTH 521 0
DWIDTH 20 0
BBX 16 25 2 0
BITMAP
03C0
1FF0
3FFC
7FFC
E0FE
407E
003E
003E
003E
003C
003C
0078
0070
00F0
00E0
01C0
0380
0700
0C03
1803
3FFF
7FFE
FFFE
FFFE
FFFC
ENDCHAR

STARTCHAR three
ENCODING 51
SWIDTH 521 0
DWIDTH 20 0
BBX 16 25 1 0
BITMAP
07F0
1FFC
3FFC
70FE
C07E
003E
003E
003C
0078
00E0
01F8
1FFC
3FFE
01FF
007F
003F
001F
001F
001F
001E
003E
703C
F878
FFE0
3F00
ENDCHAR

STARTCHAR four
ENCODING 52
SWIDTH 521 0
DWIDTH 20 0
BBX 18 25 1 0
BITMAP
001E00
003E00
003E00
007E00
00DE00
01BE00
01BE00
033E00
063E00
043E00
0C3E00
183E00
303E00
303E00
403E00
FFFFC0
FFFFC0
FFFFC0
FFFFC0
003E00
003E00
003E00
003E00
003E00
003E00
ENDCHAR

STARTCHAR five
ENCODING 53
SWIDTH 521 0
DWIDTH 20 0
BBX 15 26 2 0
BITMAP
0002
07FE
07FE
0FFC
0FFC
0800
1800
1000
3C00
3F80
7FE0
7FF0
3FF8
07FC
01FE
007E
003E
003E
001E
001E
001C
001C
6038
FFE0
FFC0
7C00
ENDCHAR

STARTCHAR six
ENCODING 54
SWIDTH 521 0
DWIDTH 20 0
BBX 17 25 1 0
BITMAP
000600
003F00
00FC00
01F000
03E000
0F8000
0F8000
1F0000
3E0000
3E0000
7EF800
7DFE00
7FFF00
FC3F00
FC1F80
FC1F80
FC0F80
FC0F80
7C0F80
7C0F80
3C0F00
3E1F00
1E1E00
0FFC00
01F000
ENDCHAR

STARTCHAR seven
ENCODING 55
SWIDTH 521 0
DWIDTH 20 0
BBX 16 25 2 0
BITMAP
3FFF
3FFF
7FFE
7FFE
7FFE
400C
C00C
001C
0018
0038
0038
0030
0070
0070
0060
00E0
00E0
00C0
01C0
01C0
0180
0380
0300
0300
0700
ENDCHAR

STARTCHAR eight
ENCODING 56
SWIDTH 521 0
DWIDTH 20 0
BBX 16 25 2 0
BITMAP
07E0
1FF8
3C3C
781E
F80E
F80E
FC0E
FC1E
FE1C
7FB8
3FE0
1FF0
07F8
0FFC
1DFE
38FF
707F
E03F
E01F
E01F
E01F
F03E
787C
3FF8
0FC0
ENDCHAR

STARTCHAR nine
ENCODING 57
SWIDTH 521 0
DWIDTH 20 0
BBX 17 25 1 0
BITMAP
03E000
0FF800
3E3C00
7C1E00
7C1F00
F81F00
F80F80
F80F80
F80F80
FC0F80
FC0F80
FC0F80
7E1F80
3FFF80
1FEF80
071F00
003F00
003E00
007C00
00FC00
01F800
03E000
0FC000
7F0000
300000
ENDCHAR

STARTCHAR colon
ENCODING 58
SWIDTH 344 0
DWIDTH 13 0
BBX 7 18 3 0
BITMAP
38
7C
FE
FE
FE
7C
38
00
00
00
00
38
7C
FE
FE
FE
7C
38
ENDCHAR

STARTCHAR semicolon
ENCODING 59
SWIDTH 344 0
DWIDTH 13 0
BBX 8 24 2 -6
BITMAP
1C
3E
7F
7F
7F
3E
1C
00
00
00
00
3C
7E
FF
FF
7F
7F
0F
07
07
0E
1C
7C
F0
ENDCHAR

STARTCHAR less
ENCODING 60
SWIDTH 667 0
DWIDTH 25 0
BBX 21 21 2 2
BITMAP
000008
000038
0001F8
0007F8
003FF0
00FFC0
03FE00
1FF800
7FC000
FF0000
FC0000
FF0000
7FE000
1FF800
03FF00
00FFC0
001FF8
0007F8
0001F8
000038
000008
ENDCHAR

STARTCHAR equal
ENCODING 61
SWIDTH 667 0
DWIDTH 25 0
BBX 21 13 2 6
BITMAP
FFFFF8
FFFFF8
FFFFF8
FFFFF8
000000
000000
000000
000000
000000
FFFFF8
FFFFF8
FFFFF8
FFFFF8
ENDCHAR

STARTCHAR greater
ENCODING 62
SWIDTH 667 0
DWIDTH 25 0
BBX 21 21 2 2
BITMAP
800000
F00000
FC0000
FF8000
7FE000
1FF800
03FF00
00FFC0
001FF8
0006F8
0001F8
0007F8
003FF0
00FFC0
03FE00
1FF800
7FE000
FF0000
FC0000
F00000
800000
ENDCHAR

STARTCHAR question
ENCODING 63
SWIDTH 458 0
DWIDTH 17 0
BBX 14 26 1 0
BITMAP
7F00
FFC0
FFE0
FC70
6038
0018
001C
003C
007C
07FC
0FFC
0FFC
0FF8
0FE0
0F00
0C00
0400
0000
0000
0E00
1F00
3F80
3F80
3F80
1F00
0E00
ENDCHAR

STARTCHAR at
ENCODING 64
SWIDTH 927 0
DWIDTH 35 0
BBX 33 34 2 -8
BITMAP
000FFC0000
003C078000
00E000C000
03C0002000
0700001000
0E00000800
0C00000C00
1800000400
3803CF0400
30076F0200
700E2F0200
601C3E0200
603C3E0200
E0383E0200
C0783E0200
C0783C0200
C0F87C0200
C0F07C0400
C0F0F80400
C1F0780C00
C1F1780800
C1F3781000
41FEF02000
61FCF04180
60F8F98100
30F07E0200
3000000600
1800000400
0C00000800
0400001000
0300006000
01C001C000
00700F0000
000FF00000
ENDCHAR

STARTCHAR A
ENCODING 65
SWIDTH 781 0
DWIDTH 30 0
BBX 29 26 0 0
BITMAP
001FC000
001FC000
000FE000
001FE000
001FE000
0037F000
0037F000
0033F800
0063F800
0061F800
00C1FC00
00C1FC00
00C0FE00
0180FE00
01FFFE00
03FFFF00
03007F00
07003F80
07003F80
06001F80
0E001FC0
0E001FC0
1E001FE0
3F001FF0
FF807FF8
FF807FF8
ENDCHAR

STARTCHAR B
ENCODING 66
SWIDTH 781 0
DWIDTH 30 0
BBX 27 26 1 0
BITMAP
FFFFF000
FFFFFE00
3FC0FF80
1FC03F80
1FC03FC0
1FC01FC0
1FC01FC0
1FC01FC0
1FC01FC0
1FC03F80
1FC03F00
1FC0FE00
1FFFE000
1FFFFC00
1FC07F00
1FC03F80
1FC01FC0
1FC00FE0
1FC00FE0
1FC00FE0
1FC00FE0
1FC01FE0
1FC01FC0
3FE07F80
FFFFFF00
FFFFF800
ENDCHAR

STARTCHAR C
ENCODING 67
SWIDTH 802 0
DWIDTH 30 0
BBX 27 26 2 0
BITMAP
001FF000
00FFFF00
03F03FC0
07C00FC0
0F8007C0
1F8003C0
3F0001C0
7F0001E0
7F000000
7E000000
FE000000
FE000000
FE000000
FE000000
FE000000
FE000000
FF000000
7F0000E0
7F0001E0
3F8001E0
3F8003E0
1FC003E0
0FE007E0
03F81FC0
00FFFF00
000FF000
ENDCHAR

STARTCHAR D
ENCODING 68
SWIDTH 875 0
DWIDTH 33 0
BBX 30 26 1 0
BITMAP
FFFFF000
FFFFFE00
3FC07F80
1FC01FC0
1FC00FE0
1FC007F0
1FC007F8
1FC003F8
1FC003F8
1FC003FC
1FC001FC
1FC001FC
1FC001FC
1FC001FC
1FC001FC
1FC001FC
1FC001FC
1FC003F8
1FC003F8
1FC003F0
1FC007F0
1FC00FE0
1FC01FC0
3FE03F00
FFFFFC00
FFFFE000
ENDCHAR

STARTCHAR E
ENCODING 69
SWIDTH 750 0
DWIDTH 29 0
BBX 26 26 1 0
BITMAP
FFFFFF80
FFFFFF80
3FC01F80
1FC00F80
1FC00780
1FC00000
1FC00000
1FC00000
1FC01C00
1FC01C00
1FC03C00
1FFFFC00
1FFFFC00
1FC07C00
1FC01C00
1FC01C00
1FC00000
1FC00000
1FC00000
1FC000C0
1FC001C0
1FC003C0
1FC00FC0
3FE03FC0
FFFFFFC0
FFFFFF80
ENDCHAR

STARTCHAR F
ENCODING 70
SWIDTH 687 0
DWIDTH 26 0
BBX 24 26 1 0
BITMAP
FFFFFF
FFFFFF
3FC03F
1FC00F
1FC007
1FC007
1FC000
1FC000
1FC000
1FC038
1FC038
1FC078
1FFFF8
1FFFF8
1FC078
1FC038
1FC038
1FC000
1FC000
1FC000
1FC000
1FC000
1FC000
3FE000
FFFC00
FFFC00
ENDCHAR

STARTCHAR G
ENCODING 71
SWIDTH 844 0
DWIDTH 32 0
BBX 30 26 2 0
BITMAP
001FF800
00FFFF00
03F03FC0
07C00FC0
1FC003C0
1F8001C0
3F0001E0
7F0000E0
7F000000
FF000000
FE000000
FE000000
FE000000
FE007FFC
FE007FFC
FE001FF0
FF000FE0
FF000FE0
7F000FE0
7F800FE0
3F800FE0
1FC00FE0
0FE00FE0
07F81FE0
01FFFFC0
001FF800
ENDCHAR

STARTCHAR H
ENCODING 72
SWIDTH 875 0
DWIDTH 33 0
BBX 31 26 1 0
BITMAP
FFFC3FFE
FFFC3FFE
1FF00FF8
0FE007F0
0FE007F0
0FE007F0
0FE007F0
0FE007F0
0FE007F0
0FE007F0
0FE007F0
0FE007F0
0FFFFFF0
0FFFFFF0
0FE007F0
0FE007F0
0FE007F0
0FE007F0
0FE007F0
0FE007F0
0FE007F0
0FE007F0
0FE007F0
1FF00FF8
FFFC3FFE
FFFC3FFE
ENDCHAR

STARTCHAR I
ENCODING 73
SWIDTH 406 0
DWIDTH 15 0
BBX 13 26 1 0
BITMAP
FFF8
FFF8
3FE0
1FC0
1FC0
1FC0
1FC0
1FC0
1FC0
1FC0
1FC0
1FC0
1FC0
1FC0
1FC0
1FC0
1FC0
1FC0
1FC0
1FC0
1FC0
1FC0
1FC0
3FE0
FFF8
FFF8
ENDCHAR

STARTCHAR J
ENCODING 74
SWIDTH 406 0
DWIDTH 15 0
BBX 17 34 -3 -8
BITMAP
0FFF80
0FFF80
03FE00
01FC00
01FC00
01FC00
01FC00
01FC00
01FC00
01FC00
01FC00
01FC00
01FC00
01FC00
01FC00
01FC00
01FC00
01FC00
01FC00
01FC00
01FC00
01FC00
01FC00
01FC00
01FC00
01FC00
01FC00
01F800
01F800
71F800
F9F000
7BE000
7FC000
3F0000
ENDCHAR

STARTCHAR K
ENCODING 75
SWIDTH 781 0
DWIDTH 30 0
BBX 29 26 1 0
BITMAP
FFF87FE0
FFF87FE0
3FE03F80
1FC01E00
1FC03C00
1FC07800
1FC0E000
1FC1C000
1FC38000
1FC70000
1FCE0000
1FDF0000
1FFF8000
1FFFC000
1FDFE000
1FDFF000
1FCFF000
1FC7F800
1FC3FC00
1FC1FE00
1FC1FF00
1FC0FF80
1FC07FC0
3FE03FE0
FFF81FF8
FFF80FF8
ENDCHAR

STARTCHAR L
ENCODING 76
SWIDTH 687 0
DWIDTH 26 0
BBX 24 26 1 0
BITMAP
FFF800
FFF800
3FE000
1FC000
1FC000
1FC000
1FC000
1FC000
1FC000
1FC000
1FC000
1FC000
1FC000
1FC000
1FC000
1FC000
1FC000
1FC000
1FC000
1FC003
1FC007
1FC00F
1FC01F
3FE07F
FFFFFF
FFFFFE
ENDCHAR

STARTCHAR M
ENCODING 77
SWIDTH 1010 0
DWIDTH 38 0
BBX 38 26 0 0
BITMAP
1FF8007FE0
1FF8007FE0
07F8007F80
03F8007F00
03FC00FF00
03FC00FF00
03FC00FF00
06FE01BF00
06FE01BF80
06FF033F80
067F033F80
067F863F80
0E3F861F80
0C3F8C1F80
0C1FCC1FC0
0C1FD81FC0
0C0FE81FC0
0C0FF81FC0
1807F01FC0
1807F00FC0
1807E00FE0
1803E00FE0
3C03E00FE0
3C01C01FF0
FF81C0FFFC
FF81C0FFFC
ENDCHAR

STARTCHAR N
ENCODING 78
SWIDTH 792 0
DWIDTH 30 0
BBX 28 26 1 0
BITMAP
FF801FF0
FFC01FF0
3FE007C0
1FF00380
1FF80180
1FFC0180
1BFE0180
19FE0180
19FF0180
18FF8180
187FC180
083FE180
081FF180
080FF980
0807FD80
0803FF80
0801FF80
0C01FF80
0C00FF80
0C007F80
0C003F80
1C001F80
1C000FC0
3E0007C0
FFC003C0
FFC001C0
ENDCHAR

STARTCHAR O
ENCODING 79
SWIDTH 875 0
DWIDTH 33 0
BBX 29 26 2 0
BITMAP
003FE000
00FFFC00
03F07F00
0FC01F80
1F801FC0
3F800FE0
3F0007F0
7F0007F0
7F0007F8
FE0003F8
FE0003F8
FE0003F8
FE0003F8
FE0003F8
FE0003F8
FE0003F8
FF0003F8
7F0003F0
7F0007F0
7F8007E0
3F8007E0
1FC00FC0
0FE01F80
07F07E00
01FFF800
001FC000
ENDCHAR

STARTCHAR P
ENCODING 80
SWIDTH 729 0
DWIDTH 28 0
BBX 26 26 1 0
BITMAP
FFFFF000
FFFFFE00
3FC0FF00
1FC07F80
1FC03FC0
1FC01FC0
1FC01FC0
1FC01FC0
1FC01FC0
1FC03FC0
1FC03F80
1FC07F00
1FCFFE00
1FCFF000
1FC00000
1FC00000
1FC00000
1FC00000
1FC00000
1FC00000
1FC00000
1FC00000
1FC00000
3FE00000
FFFC0000
FFFC0000
ENDCHAR

STARTCHAR Q
ENCODING 81
SWIDTH 865 0
DWIDTH 33 0
BBX 30 34 2 -8
BITMAP
003FE000
00FFFC00
03F07F00
07C03F80
0F801FC0
1F800FE0
3F0007F0
7F0007F0
7F0007F8
FE0007F8
FE0003F8
FE0003F8
FE0003F8
FE0003F8
FE0003F8
FE0003F8
FF0003F8
FF0003F8
7F0003F0
7F0007F0
7F8007E0
3F8007C0
1FC00FC0
0FE01F80
07F07E00
01FFFC00
007FF000
001FFE00
0007FFC0
0001FFFC
00007FFC
00001FFC
000003FC
0000007C
ENDCHAR

STARTCHAR R
ENCODING 82
SWIDTH 771 0
DWIDTH 29 0
BBX 28 26 2 0
BITMAP
FFFFF000
FFFFFC00
3FC0FE00
1FC07F00
1FC07F80
1FC03F80
1FC03F80
1FC03F80
1FC03F80
1FC03F00
1FC07E00
1FC0FC00
1FFFD000
1FFFE000
1FCFF000
1FC7F800
1FC3F800
1FC3FC00
1FC1FE00
1FC0FF00
1FC0FF00
1FC07F80
1FC03FC0
3FE03FE0
FFF81FF0
FFF80FF0
ENDCHAR

STARTCHAR S
ENCODING 83
SWIDTH 656 0
DWIDTH 25 0
BBX 21 26 2 0
BITMAP
03FC00
0FFFC0
3F07F0
7E01F0
7C00F0
FC00F0
FE0070
FF0070
FFC000
FFF000
7FFC00
3FFF00
1FFFC0
07FFE0
01FFF0
007FF8
001FF8
0007F8
E003F8
F001F8
F001F8
F801F8
FC03F0
FF07E0
3FFF80
03FC00
ENDCHAR

STARTCHAR T
ENCODING 84
SWIDTH 740 0
DWIDTH 28 0
BBX 27 26 1 0
BITMAP
FFFFFFE0
FFFFFFE0
FC3F87E0
F83F83E0
F03F81E0
E03F80E0
003F8000
003F8000
003F8000
003F8000
003F8000
003F8000
003F8000
003F8000
003F8000
003F8000
003F8000
003F8000
003F8000
003F8000
003F8000
003F8000
003F8000
007FC000
01FFF000
01FFF000
ENDCHAR

STARTCHAR U
ENCODING 85
SWIDTH 833 0
DWIDTH 32 0
BBX 30 26 1 0
BITMAP
FFFC07FC
FFFC07FC
3FE001F0
1FC000F0
1FC00060
1FC00060
1FC00060
1FC00060
1FC00060
1FC00060
1FC00060
1FC00060
1FC00060
1FC00060
1FC00060
1FC00060
1FC00060
1FC00060
1FC00060
0FE000E0
0FE000C0
0FF003C0
07FC0F80
03FFFF00
00FFFE00
001FF000
ENDCHAR

STARTCHAR V
ENCODING 86
SWIDTH 729 0
DWIDTH 28 0
BBX 27 26 0 0
BITMAP
FFF01FE0
FFF01FE0
3FC007C0
1FC00780
1FC00300
0FE00300
0FE00600
07F00600
07F00E00
07F80C00
03F80C00
03F81800
01FC1800
01FC3000
00FE3000
00FE6000
007F6000
007F4000
003FC000
003F8000
003F8000
001F8000
001F0000
000F0000
000F0000
000E0000
ENDCHAR

STARTCHAR W
ENCODING 87
SWIDTH 1031 0
DWIDTH 39 0
BBX 38 26 1 0
BITMAP
FFE3FFC3FC
FFE3FFC3FC
7FC1FF00F8
3F80FF0070
3F807F0060
1FC07F0060
1FC03F0060
0FC03F80C0
0FE03F80C0
0FE07FC0C0
07F06FC180
07F06FC180
03F0CFE180
03F8CFE300
03F8C7E300
01F987F300
01FD83F600
01FD03FE00
00FF03FC00
00FF01FC00
007E01FC00
007E00F800
007E00F800
003C00F800
003C00F000
003C007000
ENDCHAR

STARTCHAR X
ENCODING 88
SWIDTH 781 0
DWIDTH 30 0
BBX 29 26 0 0
BITMAP
FFFE3FF0
FFFE3FF0
3FF00F80
0FF00F00
0FF00E00
07F81C00
03FC1800
03FE3000
01FE6000
00FFE000
007F8000
003FC000
003FE000
001FE000
000FF000
001FF800
0037FC00
0073FC00
00E1FE00
01C0FF00
03807F80
07007F80
0F803FC0
1F807FE0
7FE1FFF8
7FE1FFF8
ENDCHAR

STARTCHAR Y
ENCODING 89
SWIDTH 729 0
DWIDTH 28 0
BBX 27 26 0 0
BITMAP
FFFC3FE0
FFFC3FE0
3FE00F80
1FE00700
0FE00700
0FF00E00
07F00C00
07F81C00
03F81800
03FC3000
01FC3000
00FE6000
00FE6000
007FC000
007F8000
003F8000
003F8000
003F8000
003F8000
003F8000
003F8000
003F8000
003F8000
007FC000
01FFF000
01FFF000
ENDCHAR

STARTCHAR Z
ENCODING 90
SWIDTH 687 0
DWIDTH 26 0
BBX 24 26 1 0
BITMAP
7FFFFE
7FFFFE
7E01FC
7C03FC
7807F8
7007F0
000FF0
001FE0
001FC0
003FC0
007F80
007F00
00FF00
01FE00
01FE00
03FC00
07F800
07F800
0FF000
1FE007
1FE00F
3FC00F
7F803E
7F007E
FFFFFE
FFFFFE
ENDCHAR

STARTCHAR bracketleft
ENCODING 91
SWIDTH 396 0
DWIDTH 15 0
BBX 10 33 3 -7
BITMAP
FFC0
FFC0
FC00
F800
F800
F800
F800
F800
F800
F800
F800
F800
F800
F800
F800
F800
F800
F800
F800
F800
F800
F800
F800
F800
F800
F800
F800
F800
F800
F800
FC00
FFC0
FFC0
ENDCHAR

STARTCHAR backslash
ENCODING 92
SWIDTH 281 0
DWIDTH 11 0
BBX 11 27 0 -1
BITMAP
E000
E000
6000
6000
7000
3000
3000
3800
1800
1800
1C00
0C00
0C00
0E00
0600
0600
0700
0700
0300
0380
0380
0180
0180
01C0
00C0
00C0
00E0
ENDCHAR

STARTCHAR bracketright
ENCODING 93
SWIDTH 396 0
DWIDTH 15 0
BBX 10 33 2 -7
BITMAP
FFC0
FFC0
0FC0
07C0
07C0
07C0
07C0
07C0
07C0
07C0
07C0
07C0
07C0
07C0
07C0
07C0
07C0
07C0
07C0
07C0
07C0
07C0
07C0
07C0
07C0
07C0
07C0
07C0
07C0
07C0
0FC0
FFC0
FFC0
ENDCHAR

STARTCHAR asciicircum
ENCODING 94
SWIDTH 583 0
DWIDTH 22 0
BBX 16 14 3 12
BITMAP
0180
01C0
03C0
03E0
0760
0E70
0E70
1C38
1C1C
381C
300E
700E
E007
E007
ENDCHAR

STARTCHAR underscore
ENCODING 95
SWIDTH 500 0
DWIDTH 19 0
BBX 19 2 0 -7
BITMAP
FFFFE0
FFFFE0
ENDCHAR

STARTCHAR quoteleft
ENCODING 96
SWIDTH 344 0
DWIDTH 13 0
BBX 8 12 3 14
BITMAP
0E
3E
78
70
E0
E0
FC
FE
FF
FE
7E
3C
ENDCHAR

STARTCHAR a
ENCODING 97
SWIDTH 562 0
DWIDTH 21 0
BBX 20 18 1 0
BITMAP
07FC00
1FFF00
3E1F80
7C0F80
7C0F80
7C0F80
700F80
003F80
03FF80
1F8F80
3E0F80
7C0F80
FC0F80
FC0FC0
FE3FF0
FFF7F0
7FCFE0
1F0380
ENDCHAR

STARTCHAR b
ENCODING 98
SWIDTH 604 0
DWIDTH 23 0
BBX 22 27 0 0
BITMAP
030000
1F0000
FF0000
FF0000
3F0000
1F0000
1F0000
1F0000
1F0000
1F0F80
1F3FE0
1F7FF0
1FFFF8
1F83F8
1F01FC
1F01FC
1F00FC
1F00FC
1F00FC
1F00FC
1F00F8
1F00F8
1F81F0
1F81F0
1FC3E0
07FF80
00FE00
ENDCHAR

STARTCHAR c
ENCODING 99
SWIDTH 521 0
DWIDTH 20 0
BBX 17 18 1 0
BITMAP
01F800
0FFE00
1E1F00
3C1F80
7C1F80
780F00
F80600
F80000
F80000
FC0000
FC0000
FE0000
FF0100
7F8380
3FFF00
3FFE00
1FFC00
07F000
ENDCHAR

STARTCHAR d
ENCODING 100
SWIDTH 615 0
DWIDTH 23 0
BBX 22 27 1 0
BITMAP
0000E0
000FE0
001FE0
001FE0
0007E0
0003E0
0003E0
0003E0
0003E0
01F3E0
0FFFE0
1F0FE0
3E07E0
7E07E0
7C03E0
7C03E0
FC03E0
FC03E0
FC03E0
FC03E0
FE03E0
7E03E0
7F03E0
7F8FF0
3FFDFC
1FF3FC
0FE3F8
ENDCHAR

STARTCHAR e
ENCODING 101
SWIDTH 521 0
DWIDTH 20 0
BBX 18 18 1 0
BITMAP
03F000
0FFE00
1E1F00
3C1F80
3C0F80
7C0F80
7FFFC0
7FFFC0
FC0000
FC0000
FC0000
7E0000
7F0080
7F83C0
3FFF80
1FFF00
0FFC00
03F000
ENDCHAR

STARTCHAR f
ENCODING 102
SWIDTH 354 0
DWIDTH 13 0
BBX 17 26 1 0
BITMAP
00FE00
03FF80
079F80
0F0F80
1F0780
1F0000
1F0000
3F0000
FFF000
FFF000
1F0000
1F0000
1F0000
1F0000
1F0000
1F0000
1F0000
1F0000
1F0000
1F0000
1F0000
1F0000
3F8000
3F8000
FFF000
FFF000
ENDCHAR

STARTCHAR g
ENCODING 103
SWIDTH 552 0
DWIDTH 21 0
BBX 19 25 1 -7
BITMAP
07FFE0
1FFFE0
3E3FE0
7C1FE0
7C1F00
7C1F00
7C1F00
7C1F00
7E1F00
3E3E00
1FFC00
0FE000
180000
780000
7FFE00
7FFF80
7FFFC0
7FFFC0
1FFFC0
7003C0
E001C0
E00380
F00F00
7FFE00
0FF000
ENDCHAR

STARTCHAR h
ENCODING 104
SWIDTH 625 0
DWIDTH 24 0
BBX 23 27 0 0
BITMAP
030000
1F0000
FF0000
FF0000
3F0000
1F0000
1F0000
1F0000
1F0000
1F0F80
1F3FE0
1F7FF0
1FFFF0
1F83F0
1F03F0
1F01F0
1F01F0
1F01F0
1F01F0
1F01F0
1F01F0
1F01F0
1F01F0
3F83F8
3F83F8
FFE7FE
FFE7FE
ENDCHAR

STARTCHAR i
ENCODING 105
SWIDTH 333 0
DWIDTH 13 0
BBX 11 26 1 0
BITMAP
1E00
3F00
3F00
3F00
3F00
1E00
0000
0000
0000
1F00
FF00
FF00
7F00
1F00
1F00
1F00
1F00
1F00
1F00
1F00
1F00
1F00
3F00
3F80
FFE0
FFE0
ENDCHAR

STARTCHAR j
ENCODING 106
SWIDTH 313 0
DWIDTH 12 0
BBX 9 33 0 -7
BITMAP
0F00
1F80
1F80
1F80
1F80
0F00
0000
0000
0000
0F80
7F80
7F80
3F80
0F80
0F80
0F80
0F80
0F80
0F80
0F80
0F80
0F80
0F80
0F80
0F80
0F80
0F80
1F00
3E00
3C00
7800
F000
6000
ENDCHAR

STARTCHAR k
ENCODING 107
SWIDTH 552 0
DWIDTH 21 0
BBX 20 27 0 0
BITMAP
0F0000
7F0000
FF0000
FF0000
3F0000
1F0000
1F0000
1F0000
1F0000
1F3FE0
1F3FE0
1F0F80
1F0E00
1F1C00
1F1800
1F3800
1F7C00
1FFE00
1F7E00
1F7F00
1F3F80
1F1FC0
1F0FE0
3F87F0
3F83F0
FFE1F0
FFE0F0
ENDCHAR

STARTCHAR l
ENCODING 108
SWIDTH 312 0
DWIDTH 12 0
BBX 11 26 0 0
BITMAP
0F80
FF80
FF80
3F80
1F80
1F80
1F80
1F80
1F80
1F80
1F80
1F80
1F80
1F80
1F80
1F80
1F80
1F80
1F80
1F80
1F80
1F80
1F80
3FC0
FFE0
FFE0
ENDCHAR

STARTCHAR m
ENCODING 109
SWIDTH 979 0
DWIDTH 37 0
BBX 37 18 0 0
BITMAP
0F0FE07E00
FF3FF1FF80
FF7FFBFF80
7FE3FF3FC0
3F81FC0FC0
1F00F80FC0
1F00F80FC0
1F00F80FC0
1F00F80FC0
1F00F80FC0
1F00F80FC0
1F00F80FC0
1F00F80FC0
1F00F80FC0
3F81FC0FC0
3F81FC1FE0
FFE7FF3FF8
FFE7FF3FF8
ENDCHAR

STARTCHAR n
ENCODING 110
SWIDTH 625 0
DWIDTH 24 0
BBX 23 18 1 0
BITMAP
0F1FC0
7F3FE0
FF7FF0
7FE7F0
3F03F0
1F01F0
1F01F0
1F01F0
1F01F0
1F01F0
1F01F0
1F01F0
1F01F0
1F01F0
3F83F8
3F83F8
FFEFFE
FFEFFE
ENDCHAR

STARTCHAR o
ENCODING 111
SWIDTH 573 0
DWIDTH 22 0
BBX 19 18 1 0
BITMAP
03F800
0FFE00
1E1F00
3E0F80
7C0FC0
7C07C0
FC07E0
FC07E0
FC07E0
FC07E0
FC07E0
FC07E0
7C07C0
7E07C0
3E0F80
1F1F00
0FFE00
01F000
ENDCHAR

STARTCHAR p
ENCODING 112
SWIDTH 615 0
DWIDTH 23 0
BBX 22 25 0 -7
BITMAP
070F80
3F3FE0
FF7FF0
FFFFF8
3F83F8
1F01FC
1F01FC
1F00FC
1F00FC
1F00FC
1F00FC
1F00F8
1F00F8
1F81F8
1F81F0
1FC3E0
1FFF80
1FFE00
1F0000
1F0000
1F0000
3F8000
3F8000
FFE000
FFE000
ENDCHAR

STARTCHAR q
ENCODING 113
SWIDTH 615 0
DWIDTH 23 0
BBX 22 25 1 -7
BITMAP
01FC60
07FFA0
1F0FE0
3E07E0
7E03E0
7C03E0
7C03E0
FC03E0
FC03E0
FC03E0
FC03E0
FE03E0
7E03E0
7F87E0
7FFFE0
3FFBE0
1FF3E0
07C3E0
0003E0
0003E0
0003E0
0007F0
0007F0
001FFC
001FFC
ENDCHAR

STARTCHAR r
ENCODING 114
SWIDTH 479 0
DWIDTH 18 0
BBX 17 18 1 0
BITMAP
0F0F00
7F1F80
FF3F80
FF7F80
3FFF80
1FC780
1F8300
1F8000
1F0000
1F0000
1F0000
1F0000
1F0000
1F0000
3F8000
3F8000
FFF000
FFF000
ENDCHAR

STARTCHAR s
ENCODING 115
SWIDTH 458 0
DWIDTH 17 0
BBX 15 18 1 0
BITMAP
0FE0
3FFC
787C
F01C
F00C
FC00
FF80
7FE0
7FF8
3FFC
0FFE
01FE
C03E
E01E
F01E
FC3C
7FF8
0FE0
ENDCHAR

STARTCHAR t
ENCODING 116
SWIDTH 375 0
DWIDTH 14 0
BBX 13 23 0 0
BITMAP
0100
0300
0700
0F00
3F00
FFF8
FFF8
1F00
1F00
1F00
1F00
1F00
1F00
1F00
1F00
1F00
1F00
1F00
1F80
1F88
1FF8
0FF8
07E0
ENDCHAR

STARTCHAR u
ENCODING 117
SWIDTH 625 0
DWIDTH 24 0
BBX 22 18 1 0
BITMAP
FE1FE0
FE1FE0
FE0FE0
7E07E0
3E03E0
3E03E0
3E03E0
3E03E0
3E03E0
3E03E0
3E03E0
3E03E0
3F03E0
3F07E0
3F9FF0
3FFBFC
1FF3FC
0FE3F0
ENDCHAR

STARTCHAR v
ENCODING 118
SWIDTH 542 0
DWIDTH 21 0
BBX 20 18 1 0
BITMAP
FF87F0
FF87F0
7F01E0
3F01C0
3F01C0
1F8180
1F8380
0FC300
0FC700
07E600
07EE00
07F400
03FC00
03F800
01F800
01F000
00F000
00E000
ENDCHAR

STARTCHAR w
ENCODING 119
SWIDTH 771 0
DWIDTH 29 0
BBX 29 18 0 0
BITMAP
FF3FF3F8
FF3FF3F8
7E0FC0F0
7E0FC0E0
3E07E0E0
3F07E0C0
1F07F1C0
1F87F180
1F8DF180
0FCDFB00
0FD9FB00
07F8FF00
07F0FE00
03F07E00
03E07C00
03E03C00
01C03800
01C01800
ENDCHAR

STARTCHAR x
ENCODING 120
SWIDTH 552 0
DWIDTH 21 0
BBX 20 18 0 0
BITMAP
FFCFF0
FFCFF0
3F83E0
1F8380
1FC700
0FEE00
07FC00
03F800
01F800
00FC00
01FE00
03BF00
073F80
0E1F80
1C0FC0
7E1FE0
FF3FF0
FF3FF0
ENDCHAR

STARTCHAR y
ENCODING 121
SWIDTH 542 0
DWIDTH 21 0
BBX 21 25 0 -7
BITMAP
FFE3F8
FFE3F8
3F80F0
1F80E0
1F80E0
0FC0C0
0FC0C0
07E180
07E180
03F300
03F300
01FE00
01FE00
00FC00
00FC00
007C00
007800
003800
003000
183000
3C6000
3FE000
3FC000
1F8000
0F0000
ENDCHAR

STARTCHAR z
ENCODING 122
SWIDTH 510 0
DWIDTH 19 0
BBX 17 18 1 0
BITMAP
7FFF80
7FFF80
783F00
F07F00
E0FE00
E0FC00
01FC00
03F800
07F000
07E000
0FE000
1FC000
1F8180
3F8380
7F0780
FE0F80
FFFF80
FFFF80
ENDCHAR

STARTCHAR braceleft
ENCODING 123
SWIDTH 396 0
DWIDTH 15 0
BBX 11 34 2 -8
BITMAP
00E0
0380
0700
0E00
1E00
1E00
1E00
1F00
1F00
0F00
0F00
0F00
0F00
0E00
1C00
3800
E000
F000
1800
0E00
0E00
0F00
0F00
0F00
0F00
1F00
1E00
1E00
1E00
1E00
0E00
0700
03C0
0060
ENDCHAR

STARTCHAR bar
ENCODING 124
SWIDTH 219 0
DWIDTH 8 0
BBX 2 34 3 -8
BITMAP
C0
C0
C0
C0
C0
C0
C0
C0
C0
C0
C0
C0
C0
C0
C0
C0
C0
C0
C0
C0
C0
C0
C0
C0
C0
C0
C0
C0
C0
C0
C0
C0
C0
C0
ENDCHAR

STARTCHAR braceright
ENCODING 125
SWIDTH 396 0
DWIDTH 15 0
BBX 11 34 2 -8
BITMAP
E000
3800
1E00
0E00
0F00
0F00
0F00
0F00
1F00
1E00
1E00
1E00
1E00
0E00
0600
0300
0060
01E0
0700
0E00
0E00
1E00
1E00
1E00
1E00
1F00
0F00
0F00
0F00
0F00
0E00
1C00
7800
C000
ENDCHAR

STARTCHAR asciitilde
ENCODING 126
SWIDTH 521 0
DWIDTH 20 0
BBX 18 7 1 9
BITMAP
1F0040
3FC040
7FF0C0
FFFF80
C3FF80
80FF00
803E00
ENDCHAR

STARTCHAR space
ENCODING 160
SWIDTH 250 0
DWIDTH 11 0
BBX 0 0 0 0
BITMAP
ENDCHAR

STARTCHAR afii10023
ENCODING 161
SWIDTH 750 0
DWIDTH 29 0
BBX 27 34 1 0
BITMAP
07807800
0FC0FC00
0FC0FC00
0FC0FC00
07C07C00
07807800
00000000
00000000
FFFFFF80
FFFFFF80
3FC01F80
1FC00780
1FC00380
1FC00000
1FC00000
1FC00000
1FC01C00
1FC01C00
1FC03C00
1FFFFC00
1FFFFC00
1FC03C00
1FC01C00
1FC01C00
1FC00000
1FC00000
1FC00000
1FC000E0
1FC001C0
1FC003C0
1FC007C0
3FF01FC0
FFFFFFC0
FFFFFFC0
ENDCHAR

STARTCHAR afii10051
ENCODING 162
SWIDTH 850 0
DWIDTH 32 0
BBX 30 26 1 0
BITMAP
FFFFFC00
FDFDFC00
F1FC3C00
E1FC3C00
E1FC1C00
01FC0000
01FC0000
01FC0000
01FC0000
01FC0000
01FC3F80
01FCFFE0
01FDFFF0
01FF07F8
01FC03FC
01FC01FC
01FC01FC
01FC01FC
01FC00FC
01FC00FC
01FC30FC
01FC78FC
01FC79F8
0FFE39F0
0FFF3FE0
0FFF0F80
ENDCHAR

STARTCHAR afii10052
ENCODING 163
SWIDTH 646 0
DWIDTH 25 0
BBX 23 33 1 0
BITMAP
001FF8
003F80
003F00
007C00
007000
000000
000000
FFFFFC
FFFFFC
3FE07E
1FC01E
1FC00E
1FC006
1FC006
1FC000
1FC000
1FC000
1FC000
1FC000
1FC000
1FC000
1FC000
1FC000
1FC000
1FC000
1FC000
1FC000
1FC000
1FC000
1FC000
3FE000
FFFC00
FFFC00
ENDCHAR

STARTCHAR afii10053
ENCODING 164
SWIDTH 813 0
DWIDTH 31 0
BBX 27 26 2 0
BITMAP
001FF000
00FFFF00
03F01FC0
07E007C0
0FC003C0
1F8001E0
3F8000E0
3F0000E0
7F000000
7F000000
7F000000
FF000000
FFFFF000
FFFFF000
FF000000
FF000000
FF000000
7F000000
7F000180
3F8003C0
3F8007E0
1FC00FE0
0FE00FE0
03F81FC0
00FFFF80
001FFC00
ENDCHAR

STARTCHAR afii10054
ENCODING 165
SWIDTH 656 0
DWIDTH 25 0
BBX 21 26 2 0
BITMAP
03FC00
0FFFC0
3F07F0
7E01F0
7C00F0
FC00F0
FE0070
FF0070
FF8000
FFF000
7FFC00
3FFF00
1FFFC0
07FFE0
01FFF0
007FF8
001FF8
0007F8
E003F8
F001F8
F001F8
F801F8
FC03F0
FF07E0
3FFF80
03FC00
ENDCHAR

STARTCHAR afii10055
ENCODING 166
SWIDTH 406 0
DWIDTH 15 0
BBX 13 26 1 0
BITMAP
FFF8
FFF8
3FE0
1FC0
1FC0
1FC0
1FC0
1FC0
1FC0
1FC0
1FC0
1FC0
1FC0
1FC0
1FC0
1FC0
1FC0
1FC0
1FC0
1FC0
1FC0
1FC0
1FC0
3FE0
FFF8
FFF8
ENDCHAR

STARTCHAR afii10056
ENCODING 167
SWIDTH 406 0
DWIDTH 15 0
BBX 17 34 -1 0
BITMAP
780F00
FC1F80
FC1F80
FC1F80
7C0F80
780F00
000000
000000
3FFE00
3FFE00
0FF800
07F000
07F000
07F000
07F000
07F000
07F000
07F000
07F000
07F000
07F000
07F000
07F000
07F000
07F000
07F000
07F000
07F000
07F000
07F000
07F000
0FF800
3FFE00
3FFE00
ENDCHAR

STARTCHAR afii10057
ENCODING 168
SWIDTH 406 0
DWIDTH 15 0
BBX 17 34 -3 -8
BITMAP
0FFF80
0FFF80
03FE00
01FC00
01FC00
01FC00
01FC00
01FC00
01FC00
01FC00
01FC00
01FC00
01FC00
01FC00
01FC00
01FC00
01FC00
01FC00
01FC00
01FC00
01FC00
01FC00
01FC00
01FC00
01FC00
01FC00
01FC00
01F800
01F800
71F800
F9F000
7BE000
7FC000
3F0000
ENDCHAR

STARTCHAR afii10058
ENCODING 169
SWIDTH 1086 0
DWIDTH 41 0
BBX 39 26 1 0
BITMAP
07FFFFF000
07FFFFF000
00707FC000
00603F8000
00603F8000
00603F8000
00603F8000
00603F8000
00603F8000
00603F8000
00603F8000
00603FFF80
00603FFFF0
00603F83F8
00603F81FC
00603F80FC
00603F80FE
00603F80FE
00603F80FE
70603F80FE
F8C03F80FE
FFC03F81FC
FF803F81FC
FF81FF87F8
7F01FFFFF0
1C01FFFF80
ENDCHAR

STARTCHAR afii10059
ENCODING 170
SWIDTH 1095 0
DWIDTH 42 0
BBX 39 26 2 0
BITMAP
FFF9FFF000
FFF9FFF000
3FE07FC000
1FC03F8000
1FC03F8000
1FC03F8000
1FC03F8000
1FC03F8000
1FC03F8000
1FC03F8000
1FC03F8000
1FFFFFFF80
1FFFFFFFF0
1FC03F83F8
1FC03F81FC
1FC03F80FE
1FC03F80FE
1FC03F80FE
1FC03F80FE
1FC03F80FE
1FC03F80FE
1FC03F81FE
1FC03F81FC
3FE07F83F8
FFF9FFFFF0
FFF9FFFFC0
ENDCHAR

STARTCHAR afii10060
ENCODING 171
SWIDTH 854 0
DWIDTH 32 0
BBX 31 26 1 0
BITMAP
FFFFFF00
FFFFFF00
F8FE0F00
F0FE0700
E0FE0700
E0FE0700
00FE0000
00FE0000
00FE0000
00FE0000
00FE1FC0
00FE7FF0
00FEFFF0
00FFC7F8
00FF03F8
00FE03F8
00FE03F8
00FE03F8
00FE03F8
00FE03F8
00FE03F8
00FE03F8
00FE03F8
01FF07FC
07FF8FFE
07FF8FFE
ENDCHAR

STARTCHAR afii10061
ENCODING 172
SWIDTH 781 0
DWIDTH 30 0
BBX 28 34 1 0
BITMAP
0003FF00
0003FC00
0007F000
000FC000
000F0000
001C0000
00000000
00000000
FFF80780
FFF80FC0
3FF01FE0
1FC03FE0
1FC03FC0
1FC06180
1FC06000
1FC06000
1FC06000
1FC0C000
1FC0C000
1FC18000
1FCFC000
1FFFE000
1FCFF000
1FC7F800
1FC3F800
1FC3FC00
1FC1FC00
1FC1FE00
1FC0FF00
1FC07F80
1FC07FC0
3FE03FE0
FFF81FF0
FFF81FF0
ENDCHAR

STARTCHAR hyphen
ENCODING 173
SWIDTH 458 0
DWIDTH 17 0
BBX 13 5 2 7
BITMAP
FFF8
FFF8
FFF8
FFF8
FFF8
ENDCHAR

STARTCHAR afii10062
ENCODING 174
SWIDTH 750 0
DWIDTH 29 0
BBX 27 34 1 0
BITMAP
07001C00
0F803E00
0FC07E00
0FC07E00
07F1FC00
01FFF000
00000000
00000000
FFF83FE0
FFF83FE0
3FE00F80
3FC00700
1FE00700
0FE00600
0FF00600
07F00C00
07F80C00
03F81800
03FC1800
01FC1800
01FE3000
00FE3000
00FF6000
007FE000
003FE000
003FC000
001FC000
001F8000
1E0F8000
3F0F0000
3F870000
1FCE0000
1FFC0000
07F00000
ENDCHAR

STARTCHAR afii10145
ENCODING 175
SWIDTH 854 0
DWIDTH 32 0
BBX 29 32 2 -6
BITMAP
FFF8FFF8
FFF8FFF8
3FE03FE0
1FC01FC0
1FC01FC0
1FC01FC0
1FC01FC0
1FC01FC0
1FC01FC0
1FC01FC0
1FC01FC0
1FC01FC0
1FC01FC0
1FC01FC0
1FC01FC0
1FC01FC0
1FC01FC0
1FC01FC0
1FC01FC0
1FC01FC0
1FC01FC0
1FC01FC0
1FC01FC0
3FE03FE0
FFFFFFF8
FFFFFFF8
001FC000
001FC000
001FC000
001FC000
001FC000
001FC000
ENDCHAR

STARTCHAR afii10017
ENCODING 176
SWIDTH 781 0
DWIDTH 30 0
BBX 29 26 0 0
BITMAP
001FC000
000FC000
001FE000
001FE000
001BF000
0037F000
0037F000
0063F800
0063F800
0061FC00
00C1FC00
00C1FC00
01C0FE00
0180FE00
01FFFF00
03FFFF00
03007F00
07003F80
07003F80
06001F80
0E001FC0
0E001FC0
1E001FE0
3F001FF0
FF807FF8
FF807FF8
ENDCHAR

STARTCHAR afii10018
ENCODING 177
SWIDTH 740 0
DWIDTH 28 0
BBX 25 26 2 0
BITMAP
FFFFFC00
FFFFFE00
3FE07E00
1FC03E00
1FC01E00
1FC00E00
1FC00600
1FC00000
1FC00000
1FC00000
1FC00000
1FFFE000
1FFFFC00
1FC0FE00
1FC07F00
1FC07F80
1FC03F80
1FC03F80
1FC03F80
1FC03F80
1FC03F80
1FC07F80
1FC07F00
3FC1FE00
FFFFFC00
FFFFF000
ENDCHAR

STARTCHAR afii10019
ENCODING 178
SWIDTH 781 0
DWIDTH 30 0
BBX 27 26 1 0
BITMAP
FFFFF000
FFFFFE00
3FC0FF80
1FC03F80
1FC03FC0
1FC01FC0
1FC01FC0
1FC01FC0
1FC01FC0
1FC03F80
1FC03F00
1FC0FE00
1FFFE000
1FFFFC00
1FC07F00
1FC03F80
1FC01FC0
1FC00FE0
1FC00FE0
1FC00FE0
1FC00FE0
1FC01FE0
1FC01FC0
3FE07F80
FFFFFF00
FFFFF800
ENDCHAR

STARTCHAR afii10020
ENCODING 179
SWIDTH 646 0
DWIDTH 25 0
BBX 23 26 1 0
BITMAP
FFFFFC
FFFFFC
3FE07E
1FC01E
1FC00E
1FC006
1FC006
1FC000
1FC000
1FC000
1FC000
1FC000
1FC000
1FC000
1FC000
1FC000
1FC000
1FC000
1FC000
1FC000
1FC000
1FC000
1FC000
3FE000
FFFC00
FFFC00
ENDCHAR

STARTCHAR afii10021
ENCODING 180
SWIDTH 781 0
DWIDTH 30 0
BBX 29 32 0 -6
BITMAP
3FFFFFF8
3FFFFFF8
07807FC0
03003F80
03003F80
03003F80
03003F80
03003F80
03003F80
03003F80
03003F80
03003F80
03003F80
03003F80
03003F80
02003F80
02003F80
06003F80
06003F80
06003F80
04003F80
0C003F80
1C003F80
3E007FC0
FFFFFFF8
FFFFFFF8
FE0003F8
F00000F8
E0000078
E0000038
C0000038
C0000018
ENDCHAR

STARTCHAR afii10022
ENCODING 181
SWIDTH 750 0
DWIDTH 29 0
BBX 26 26 1 0
BITMAP
FFFFFF80
FFFFFF80
3FC01F80
1FC00F80
1FC00780
1FC00000
1FC00000
1FC00000
1FC01C00
1FC01C00
1FC03C00
1FFFFC00
1FFFFC00
1FC07C00
1FC01C00
1FC01C00
1FC00000
1FC00000
1FC00000
1FC000C0
1FC001C0
1FC003C0
1FC00FC0
3FE03FC0
FFFFFFC0
FFFFFF80
ENDCHAR

STARTCHAR afii10024
ENCODING 182
SWIDTH 1094 0
DWIDTH 42 0
BBX 40 26 1 0
BITMAP
3C07FFC078
7F07FFC1FC
FF01FF81FE
FF80FE03FE
7F80FE03FC
30C0FE0218
00C0FE0600
00C0FE0600
00C0FE0600
0040FE0400
0060FE0C00
0030FE1800
00FCFE7E00
01FFFFFF00
01FEFEFF00
03FCFE7F80
07F8FE3FC0
07F0FE1FC0
0FF0FE1FE0
0FE0FE0FE0
1FE0FE0FF0
1FC0FE07F0
3FC0FE07F8
7F81FF03FC
FF87FFC3FF
FF07FFC1FF
ENDCHAR

STARTCHAR afii10025
ENCODING 183
SWIDTH 750 0
DWIDTH 29 0
BBX 25 26 1 0
BITMAP
01FFC000
3FFFF800
7F03FC00
7C00FE00
7800FF00
70007F00
60007F00
60007F00
00007F00
0000FE00
0001F800
01FF8000
01FFE000
0001FC00
00007E00
00007F00
00003F80
20003F80
F8003F80
F8003F80
FC007F80
FC007F00
FE00FF00
7F03FC00
1FFFF800
01FF8000
ENDCHAR

STARTCHAR afii10026
ENCODING 184
SWIDTH 854 0
DWIDTH 32 0
BBX 30 26 1 0
BITMAP
FFFC7FFC
FFFC7FFC
3FE01FF0
1FC00FE0
1FC00FE0
1FC00FE0
1FC01FE0
1FC03FE0
1FC077E0
1FC06FE0
1FC0CFE0
1FC18FE0
1FC38FE0
1FC70FE0
1FC60FE0
1FCC0FE0
1FD80FE0
1FD80FE0
1FF00FE0
1FE00FE0
1FC00FE0
1FC00FE0
1FC00FE0
3FE01FF0
FFFC7FFC
FFFC7FFC
ENDCHAR

STARTCHAR afii10027
ENCODING 185
SWIDTH 854 0
DWIDTH 32 0
BBX 30 34 1 0
BITMAP
01C00700
03E00F80
03E01F80
03F01F80
01FC7F00
007FFC00
00000000
00000000
FFFC7FFC
FFFC7FFC
3FE01FF0
1FC00FE0
1FC00FE0
1FC00FE0
1FC01FE0
1FC03FE0
1FC077E0
1FC06FE0
1FC0CFE0
1FC18FE0
1FC38FE0
1FC70FE0
1FC60FE0
1FCC0FE0
1FD80FE0
1FD80FE0
1FF00FE0
1FE00FE0
1FC00FE0
1FC00FE0
1FC00FE0
3FE01FF0
FFFC7FFC
FFFC7FFC
ENDCHAR

STARTCHAR afii10028
ENCODING 186
SWIDTH 781 0
DWIDTH 30 0
BBX 28 26 1 0
BITMAP
FFF80780
FFF80FC0
3FF01FE0
1FC03FE0
1FC03FC0
1FC06180
1FC06000
1FC06000
1FC06000
1FC0C000
1FC0C000
1FC18000
1FCFC000
1FFFE000
1FCFF000
1FC7F800
1FC3F800
1FC3FC00
1FC1FC00
1FC1FE00
1FC0FF00
1FC07F80
1FC07FC0
3FE03FE0
FFF81FF0
FFF81FF0
ENDCHAR

STARTCHAR afii10029
ENCODING 187
SWIDTH 833 0
DWIDTH 32 0
BBX 31 26 -1 0
BITMAP
03FFFFFE
03FFFFFE
00780FF8
003007F0
003007F0
003007F0
003007F0
003007F0
003007F0
003007F0
003007F0
003007F0
003007F0
003007F0
003007F0
003007F0
003007F0
003007F0
003007F0
003007F0
783007F0
FC6007F0
FFE007F0
7FC01FF8
7F807FFE
3F007FFE
ENDCHAR

STARTCHAR afii10030
ENCODING 188
SWIDTH 1010 0
DWIDTH 38 0
BBX 38 26 0 0
BITMAP
1FF8007FE0
1FF8007FE0
07F8007F80
03F8007F00
03FC00FF00
03FC00FF00
03FC00FF00
06FE01BF00
06FE01BF80
06FF033F80
067F033F80
067F863F80
0E3F861F80
0C3F8C1F80
0C1FCC1FC0
0C1FD81FC0
0C0FE81FC0
0C0FF81FC0
1807F01FC0
1807F00FC0
1807E00FE0
1803E00FE0
3C03E00FE0
3C01C01FF0
FF81C0FFFC
FF81C0FFFC
ENDCHAR

STARTCHAR afii10031
ENCODING 189
SWIDTH 875 0
DWIDTH 33 0
BBX 31 26 1 0
BITMAP
FFFC3FFE
FFFC3FFE
1FF00FF8
0FE007F0
0FE007F0
0FE007F0
0FE007F0
0FE007F0
0FE007F0
0FE007F0
0FE007F0
0FE007F0
0FFFFFF0
0FFFFFF0
0FE007F0
0FE007F0
0FE007F0
0FE007F0
0FE007F0
0FE007F0
0FE007F0
0FE007F0
0FE007F0
1FF00FF8
FFFC3FFE
FFFC3FFE
ENDCHAR

STARTCHAR afii10032
ENCODING 190
SWIDTH 875 0
DWIDTH 33 0
BBX 29 26 2 0
BITMAP
003FE000
00FFFC00
03F07F00
0FC01F80
1F801FC0
3F800FE0
3F0007F0
7F0007F0
7F0007F8
FE0003F8
FE0003F8
FE0003F8
FE0003F8
FE0003F8
FE0003F8
FE0003F8
FF0003F8
7F0003F0
7F0007F0
7F8007E0
3F8007E0
1FC00FC0
0FE01F80
07F07E00
01FFF800
001FC000
ENDCHAR

STARTCHAR afii10033
ENCODING 191
SWIDTH 854 0
DWIDTH 32 0
BBX 30 26 1 0
BITMAP
FFFFFFFC
FFFFFFFC
3FE01FF0
1FC00FE0
1FC00FE0
1FC00FE0
1FC00FE0
1FC00FE0
1FC00FE0
1FC00FE0
1FC00FE0
1FC00FE0
1FC00FE0
1FC00FE0
1FC00FE0
1FC00FE0
1FC00FE0
1FC00FE0
1FC00FE0
1FC00FE0
1FC00FE0
1FC00FE0
1FC00FE0
3FE01FF0
FFFC7FFC
FFFC7FFC
ENDCHAR

STARTCHAR afii10034
ENCODING 192
SWIDTH 729 0
DWIDTH 28 0
BBX 26 26 1 0
BITMAP
FFFFF000
FFFFFE00
3FC0FF00
1FC07F80
1FC03FC0
1FC01FC0
1FC01FC0
1FC01FC0
1FC01FC0
1FC03FC0
1FC03F80
1FC07F00
1FCFFE00
1FCFF000
1FC00000
1FC00000
1FC00000
1FC00000
1FC00000
1FC00000
1FC00000
1FC00000
1FC00000
3FE00000
FFFC0000
FFFC0000
ENDCHAR

STARTCHAR afii10035
ENCODING 193
SWIDTH 802 0
DWIDTH 30 0
BBX 27 26 2 0
BITMAP
001FF000
00FFFF00
03F03FC0
07C00FC0
0F8007C0
1F8003C0
3F0001C0
7F0001E0
7F000000
7E000000
FE000000
FE000000
FE000000
FE000000
FE000000
FE000000
FF000000
7F0000E0
7F0001E0
3F8001E0
3F8003E0
1FC003E0
0FE007E0
03F81FC0
00FFFF00
000FF000
ENDCHAR

STARTCHAR afii10036
ENCODING 194
SWIDTH 740 0
DWIDTH 28 0
BBX 27 26 1 0
BITMAP
FFFFFFE0
FFFFFFE0
FC3F87E0
F83F83E0
F03F81E0
E03F80E0
003F8000
003F8000
003F8000
003F8000
003F8000
003F8000
003F8000
003F8000
003F8000
003F8000
003F8000
003F8000
003F8000
003F8000
003F8000
003F8000
003F8000
007FC000
01FFF000
01FFF000
ENDCHAR

STARTCHAR afii10037
ENCODING 195
SWIDTH 750 0
DWIDTH 29 0
BBX 27 26 1 0
BITMAP
FFF83FE0
FFF83FE0
3FE00F80
3FC00700
1FE00700
0FE00600
0FF00600
07F00C00
07F80C00
03F81800
03FC1800
01FC1800
01FE3000
00FE3000
00FF6000
007FE000
003FE000
003FC000
001FC000
001F8000
1E0F8000
3F0F0000
3F870000
1FCE0000
1FFC0000
07F00000
ENDCHAR

STARTCHAR afii10038
ENCODING 196
SWIDTH 974 0
DWIDTH 37 0
BBX 36 26 1 0
BITMAP
003FFF8000
003FFF8000
0003FC0000
0003F80000
000FFF0000
07FFFFFC00
1FC3F87F00
3F03F81F80
7E03F80FC0
7E03F807E0
FE03F807E0
FC03F807F0
FC03F807F0
FC03F807F0
FC03F807F0
FC03F807E0
7E03F80FE0
3E03F80FC0
1F03F81F80
0FE3F9FF00
03FFFFF800
0003F80000
0003F80000
0007FC0000
003FFF8000
003FFF8000
ENDCHAR

STARTCHAR afii10039
ENCODING 197
SWIDTH 781 0
DWIDTH 30 0
BBX 29 26 0 0
BITMAP
FFFE3FF0
FFFE3FF0
3FF00F80
0FF00F00
0FF00E00
07F81C00
03FC1800
03FE3000
01FE6000
00FFE000
007F8000
003FC000
003FE000
001FE000
000FF000
001FF800
0037FC00
0073FC00
00E1FE00
01C0FF00
03807F80
07007F80
0F803FC0
1F807FE0
7FE1FFF8
7FE1FFF8
ENDCHAR

STARTCHAR afii10040
ENCODING 198
SWIDTH 854 0
DWIDTH 32 0
BBX 30 32 1 -6
BITMAP
FFFC7FFC
FFFC7FFC
3FE01FF0
1FC00FE0
1FC00FE0
1FC00FE0
1FC00FE0
1FC00FE0
1FC00FE0
1FC00FE0
1FC00FE0
1FC00FE0
1FC00FE0
1FC00FE0
1FC00FE0
1FC00FE0
1FC00FE0
1FC00FE0
1FC00FE0
1FC00FE0
1FC00FE0
1FC00FE0
1FC00FE0
3FE01FF0
FFFFFFFC
FFFFFFFC
000000FC
0000003C
0000001C
0000000C
0000000C
0000000C
ENDCHAR

STARTCHAR afii10041
ENCODING 199
SWIDTH 854 0
DWIDTH 32 0
BBX 30 26 1 0
BITMAP
FFF87FFC
FFF87FFC
3FE01FF0
1FC00FE0
1FC00FE0
1FC00FE0
1FC00FE0
1FC00FE0
1FC00FE0
1FC00FE0
1FC00FE0
1FC00FE0
1FC01FE0
0FC03FE0
0FE0EFE0
07FFCFE0
03FF8FE0
007C0FE0
00000FE0
00000FE0
00000FE0
00000FE0
00000FE0
00001FF0
00007FFC
00007FFC
ENDCHAR

STARTCHAR afii10042
ENCODING 200
SWIDTH 1125 0
DWIDTH 43 0
BBX 40 26 1 0
BITMAP
FFF3FFDFFF
FFF3FFDFFF
1FC0FF03FC
1FC0FE03F8
1FC0FE03F8
1FC0FE03F8
1FC0FE03F8
1FC0FE03F8
1FC0FE03F8
1FC0FE03F8
1FC0FE03F8
1FC0FE03F8
1FC0FE03F8
1FC0FE03F8
1FC0FE03F8
1FC0FE03F8
1FC0FE03F8
1FC0FE03F8
1FC0FE03F8
1FC0FE03F8
1FC0FE03F8
1FC0FE03F8
1FC0FE03F8
3FC0FF07FC
FFFFFFFFFF
FFFFFFFFFF
ENDCHAR

STARTCHAR afii10043
ENCODING 201
SWIDTH 1125 0
DWIDTH 43 0
BBX 40 33 1 -7
BITMAP
FFF3FFDFFF
FFF3FFDFFF
1FC0FF03FC
1FC0FE03F8
1FC0FE03F8
1FC0FE03F8
1FC0FE03F8
1FC0FE03F8
1FC0FE03F8
1FC0FE03F8
1FC0FE03F8
1FC0FE03F8
1FC0FE03F8
1FC0FE03F8
1FC0FE03F8
1FC0FE03F8
1FC0FE03F8
1FC0FE03F8
1FC0FE03F8
1FC0FE03F8
1FC0FE03F8
1FC0FE03F8
1FC0FE03F8
3FC0FF07FC
FFFFFFFFFF
FFFFFFFFFF
000000007F
000000001F
0000000007
0000000007
0000000003
0000000003
0000000003
ENDCHAR

STARTCHAR afii10044
ENCODING 202
SWIDTH 832 0
DWIDTH 32 0
BBX 30 26 1 0
BITMAP
FFFFF000
FFFFF000
F07F8000
E07F0000
C07F0000
C07F0000
807F0000
007F0000
007F0000
007F0000
007F0000
007FFF00
007FFFE0
007F07F0
007F03F8
007F03F8
007F01FC
007F01FC
007F01FC
007F01FC
007F01FC
007F03FC
007F07F8
00FF0FF0
03FFFFE0
03FFFF80
ENDCHAR

STARTCHAR afii10045
ENCODING 203
SWIDTH 1125 0
DWIDTH 43 0
BBX 40 26 1 0
BITMAP
FFF8001FFF
FFF8001FFF
3FE00007FC
1FC00003F8
1FC00003F8
1FC00003F8
1FC00003F8
1FC00003F8
1FC00003F8
1FC00003F8
1FC00003F8
1FFFE003F8
1FFFFC03F8
1FC0FE03F8
1FC07F03F8
1FC03F83F8
1FC03F83F8
1FC03F83F8
1FC03F83F8
1FC03F83F8
1FC03F83F8
1FC07F83F8
1FC07F03F8
3FC1FE07FC
FFFFFC1FFF
FFFFF01FFF
ENDCHAR

STARTCHAR afii10046
ENCODING 204
SWIDTH 721 0
DWIDTH 27 0
BBX 25 26 1 0
BITMAP
FFFC0000
FFFC0000
3FE00000
1FC00000
1FC00000
1FC00000
1FC00000
1FC00000
1FC00000
1FC00000
1FC00000
1FFFE000
1FFFFC00
1FC0FE00
1FC07F00
1FC03F80
1FC03F80
1FC03F80
1FC03F80
1FC03F80
1FC03F80
1FC07F80
1FC07F00
3FC1FE00
FFFFFC00
FFFFF000
ENDCHAR

STARTCHAR afii10047
ENCODING 205
SWIDTH 802 0
DWIDTH 30 0
BBX 27 26 2 0
BITMAP
01FE0000
1FFFC000
7F01F000
7C00FC00
F8007E00
F0003F00
E0003F80
E0003F80
00001FC0
00001FC0
00001FC0
00001FC0
01FFFFE0
01FFFFE0
00001FE0
00001FC0
00001FC0
00001FC0
30001FC0
F8003F80
FC003F80
FC007F00
FE00FE00
7F03F800
3FFFE000
03FE0000
ENDCHAR

STARTCHAR afii10048
ENCODING 206
SWIDTH 1219 0
DWIDTH 46 0
BBX 43 26 1 0
BITMAP
FFF800FF8000
FFF803FFF000
3FE00FC1FC00
1FC01F00FE00
1FC07E007F00
1FC07E003F80
1FC0FC001FC0
1FC1FC001FC0
1FC1FC001FE0
1FC3F8001FE0
1FC3F8000FE0
1FC3F8000FE0
1FFFF8000FE0
1FFFF8000FE0
1FC3F8000FE0
1FC3F8000FE0
1FC3FC000FE0
1FC3FC000FC0
1FC1FC001FC0
1FC1FC001F80
1FC0FE001F80
1FC07F003F00
1FC03F807E00
3FE01FC1F800
FFF807FFE000
FFF8007F0000
ENDCHAR

STARTCHAR afii10049
ENCODING 207
SWIDTH 802 0
DWIDTH 30 0
BBX 29 26 1 0
BITMAP
00FFFFF8
03FFFFF8
07F83FC0
0FE03F80
1FE03F80
1FC03F80
1FC03F80
1FC03F80
1FC03F80
0FC03F80
07E03F80
03F03F80
00BFFF80
007FFF80
00FF3F80
00FE3F80
01FE3F80
03FC3F80
07F83F80
07F03F80
0FF03F80
1FE03F80
3FC03F80
7FC07FC0
FF81FFF8
FF01FFF8
ENDCHAR

STARTCHAR afii10065
ENCODING 208
SWIDTH 563 0
DWIDTH 21 0
BBX 20 18 1 0
BITMAP
07FC00
1FFF00
3E1F80
7C0F80
7C0F80
7C0F80
700F80
003F80
03FF80
1F8F80
3E0F80
7C0F80
FC0F80
FC0FC0
FE3FF0
FFF7F0
7FCFE0
1F0380
ENDCHAR

STARTCHAR afii10066
ENCODING 209
SWIDTH 583 0
DWIDTH 22 0
BBX 19 27 2 0
BITMAP
000060
03FFE0
07FFE0
1FFFC0
1FFF80
3FFE00
3C0000
700000
600000
61F800
43FE00
C71F00
CE0F80
DE0FC0
DE07C0
DC07E0
FC07E0
DC07E0
5C07E0
7E07E0
7E07E0
7E07C0
3E07C0
3F0F80
1F0F00
07FE00
01F000
ENDCHAR

STARTCHAR afii10067
ENCODING 210
SWIDTH 573 0
DWIDTH 22 0
BBX 20 18 1 0
BITMAP
FFFF00
FFFFC0
3F87E0
1F03E0
1F03E0
1F03E0
1F03E0
1F07C0
1FFC00
1FFF00
1F07C0
1F03E0
1F03F0
1F03F0
1F03F0
3F87E0
FFFFC0
FFFF00
ENDCHAR

STARTCHAR afii10068
ENCODING 211
SWIDTH 542 0
DWIDTH 21 0
BBX 19 18 1 0
BITMAP
FFFFE0
FFFFE0
3F03E0
1F01E0
1F00E0
1F0060
1F0000
1F0000
1F0000
1F0000
1F0000
1F0000
1F0000
1F0000
1F0000
3F8000
FFE000
FFE000
ENDCHAR

STARTCHAR afii10069
ENCODING 212
SWIDTH 565 0
DWIDTH 21 0
BBX 20 24 1 -6
BITMAP
7FFFF0
7FFFF0
1C1FC0
181F80
081F80
081F80
081F80
081F80
181F80
181F80
181F80
181F80
181F80
181F80
301F80
701FC0
FFFFF0
FFFFF0
F001F0
E000F0
C00070
C00070
C00030
800030
ENDCHAR

STARTCHAR afii10070
ENCODING 213
SWIDTH 521 0
DWIDTH 20 0
BBX 18 18 1 0
BITMAP
03F000
0FFE00
1E1F00
3C1F80
3C0F80
7C0F80
7FFFC0
7FFFC0
FC0000
FC0000
FC0000
7E0000
7F0080
7F83C0
3FFF80
1FFF00
0FFC00
03F000
ENDCHAR

STARTCHAR afii10072
ENCODING 214
SWIDTH 1021 0
DWIDTH 39 0
BBX 37 18 1 0
BITMAP
3C07FF01E0
7E07FF03F0
7F01FC07F0
7B80F80EF0
01C0F81C00
00C0F81800
0020F83000
0078F8F000
01FFFFF800
03FFFFFE00
03F8F8FF00
07F0F87F00
0FE0F83F80
0FC0F81F80
1F80F80FC0
3F81FC0FE0
FF07FF07F8
FF07FF07F8
ENDCHAR

STARTCHAR afii10073
ENCODING 215
SWIDTH 521 0
DWIDTH 20 0
BBX 17 18 1 0
BITMAP
1FFC00
7E7E00
781F00
701F80
701F80
601F80
001F00
003E00
03E000
03F800
003F00
001F80
601F80
F01F80
F81F80
F83F00
7E7E00
1FF800
ENDCHAR

STARTCHAR afii10074
ENCODING 216
SWIDTH 625 0
DWIDTH 24 0
BBX 22 18 1 0
BITMAP
FFCFFC
FFCFFC
3F87F0
1F03E0
1F03E0
1F07E0
1F0DE0
1F1BE0
1F33E0
1F23E0
1F63E0
1FC3E0
1F83E0
1F03E0
1F03E0
3F87F0
FFCFFC
FFCFFC
ENDCHAR

STARTCHAR afii10075
ENCODING 217
SWIDTH 625 0
DWIDTH 24 0
BBX 22 26 1 0
BITMAP
020080
0F01C0
0F83E0
0F83E0
0783C0
03FF80
007C00
000000
FFCFFC
FFCFFC
3F87F0
1F03E0
1F03E0
1F07E0
1F0DE0
1F1BE0
1F33E0
1F23E0
1F63E0
1FC3E0
1F83E0
1F03E0
1F03E0
3F87F0
FFCFFC
FFCFFC
ENDCHAR

STARTCHAR afii10076
ENCODING 218
SWIDTH 604 0
DWIDTH 23 0
BBX 22 18 1 0
BITMAP
FFE0F8
FFE1F8
3F81F8
1F03F8
1F0700
1F0600
1F0C00
1F1C00
1FFF00
1FFF80
1F3F80
1F1FC0
1F0FC0
1F07E0
1F07F0
3F83F0
FFE3FC
FFE1FC
ENDCHAR

STARTCHAR afii10077
ENCODING 219
SWIDTH 573 0
DWIDTH 22 0
BBX 20 18 1 0
BITMAP
3FFFF0
3FFFF0
0E0FC0
0E0F80
040F80
0C0F80
0C0F80
0C0F80
0C0F80
0C0F80
0C0F80
0C0F80
0C0F80
4C0F80
FC0F80
FC1FC0
F87FF0
707FF0
ENDCHAR

STARTCHAR afii10078
ENCODING 220
SWIDTH 781 0
DWIDTH 30 0
BBX 29 18 0 0
BITMAP
7F800FF0
7FC00FF0
1FC01FC0
1FE01FC0
1BE01FC0
1BF037C0
1BF037C0
1BF867C0
11F867C0
10FCC7C0
10FDC7C0
307F87E0
307F07E0
303F07E0
303E07E0
701E07E0
FC1C1FF8
FC0C1FF8
ENDCHAR

STARTCHAR afii10079
ENCODING 221
SWIDTH 604 0
DWIDTH 23 0
BBX 22 18 0 0
BITMAP
FFCFFC
FFCFFC
3F87F0
1F03E0
1F03E0
1F03E0
1F03E0
1F03E0
1FFFE0
1FFFE0
1F03E0
1F03E0
1F03E0
1F03E0
1F03E0
3F87F0
FFCFFC
FFCFFC
ENDCHAR

STARTCHAR afii10080
ENCODING 222
SWIDTH 573 0
DWIDTH 22 0
BBX 19 18 1 0
BITMAP
03F800
0FFE00
1E1F00
3E0F80
7C0FC0
7C07C0
FC07E0
FC07E0
FC07E0
FC07E0
FC07E0
FC07E0
7C07C0
7E07C0
3E0F80
1F1F00
0FFE00
01F000
ENDCHAR

STARTCHAR afii10081
ENCODING 223
SWIDTH 615 0
DWIDTH 23 0
BBX 23 18 0 0
BITMAP
FFFFFE
FFFFFE
3F83F8
1F03F0
1F03F0
1F03F0
1F03F0
1F03F0
1F03F0
1F03F0
1F03F0
1F03F0
1F03F0
1F03F0
1F83F0
3F87F8
FFEFFE
FFEFFE
ENDCHAR

STARTCHAR afii10082
ENCODING 224
SWIDTH 615 0
DWIDTH 23 0
BBX 22 25 0 -7
BITMAP
070F80
3F3FE0
FF7FF0
FFFFF8
3F83F8
1F01FC
1F01FC
1F00FC
1F00FC
1F00FC
1F00FC
1F00F8
1F00F8
1F81F8
1F81F0
1FC3E0
1FFF80
1FFE00
1F0000
1F0000
1F0000
3F8000
3F8000
FFE000
FFE000
ENDCHAR

STARTCHAR afii10083
ENCODING 225
SWIDTH 521 0
DWIDTH 20 0
BBX 17 18 1 0
BITMAP
01F800
0FFE00
1E1F00
3C1F80
7C1F80
780F00
F80600
F80000
F80000
FC0000
FC0000
FE0000
FF0100
7F8380
3FFF00
3FFE00
1FFC00
07F000
ENDCHAR

STARTCHAR afii10084
ENCODING 226
SWIDTH 583 0
DWIDTH 22 0
BBX 21 18 1 0
BITMAP
7FFFF0
7FFFF0
78F870
70F838
E0F838
C0F818
00F800
00F800
00F800
00F800
00F800
00F800
00F800
00F800
00F800
01FC00
07FF00
07FF00
ENDCHAR

STARTCHAR afii10085
ENCODING 227
SWIDTH 542 0
DWIDTH 21 0
BBX 21 25 0 -7
BITMAP
FFE3F8
FFE3F8
3F80F0
1F80E0
1F80E0
0FC0C0
0FC0C0
07E180
07E180
03F300
03F300
01FE00
01FE00
00FC00
00FC00
007C00
007800
003800
003000
183000
3C6000
3FE000
3FC000
1F8000
0F0000
ENDCHAR

STARTCHAR afii10086
ENCODING 228
SWIDTH 823 0
DWIDTH 31 0
BBX 28 34 2 -7
BITMAP
00030000
001F0000
007F0000
007F0000
003F0000
001F0000
001F0000
001F0000
001F0000
079F3E00
1FEF7F80
3C3FC7C0
7C3F83E0
781F83E0
F81F01F0
F81F01F0
F81F01F0
F81F01F0
F81F01F0
F81F01F0
F81F01F0
F81F01F0
7C1F83E0
7C3F83E0
3C7FC7C0
1FDF7F80
079F1E00
001F0000
001F0000
001F0000
001F0000
003FC000
00FFE000
00FFE000
ENDCHAR

STARTCHAR afii10087
ENCODING 229
SWIDTH 552 0
DWIDTH 21 0
BBX 20 18 0 0
BITMAP
FFCFF0
FFCFF0
3F83E0
1F8380
1FC700
0FEE00
07FC00
03F800
01F800
00FC00
01FE00
03BF00
073F80
0E1F80
1C0FC0
7E1FE0
FF3FF0
FF3FF0
ENDCHAR

STARTCHAR afii10088
ENCODING 230
SWIDTH 615 0
DWIDTH 23 0
BBX 23 24 0 -6
BITMAP
FFEFFE
FFEFFE
3F83F8
1F03F0
1F03F0
1F03F0
1F03F0
1F03F0
1F03F0
1F03F0
1F03F0
1F03F0
1F03F0
1F03F0
1F83F0
3F87F8
FFFFFE
FFFFFE
00003E
00001E
00000E
00000E
000006
000006
ENDCHAR

STARTCHAR afii10089
ENCODING 231
SWIDTH 594 0
DWIDTH 23 0
BBX 22 18 0 0
BITMAP
FFCFFC
FFCFFC
3F83F0
1F03E0
1F03E0
1F03E0
1F03E0
1F03E0
1F83E0
1FCFE0
0FFFE0
03F3E0
0003E0
0003E0
0003E0
0007F0
001FFC
001FFC
ENDCHAR

STARTCHAR afii10090
ENCODING 232
SWIDTH 1022 0
DWIDTH 39 0
BBX 37 18 1 0
BITMAP
FFE7FF3FF8
FFE7FF3FF8
3F81FC0FE0
1F00F807C0
1F00F807C0
1F00F807C0
1F00F807C0
1F00F807C0
1F00F807C0
1F00F807C0
1F00F807C0
1F00F807C0
1F00F807C0
1F00F807C0
1F00F807C0
3F81FC0FE0
FFFFFFFFF8
FFFFFFFFF8
ENDCHAR

STARTCHAR afii10091
ENCODING 233
SWIDTH 1019 0
DWIDTH 39 0
BBX 37 24 1 -6
BITMAP
FFE7FF3FF8
FFE7FF3FF8
3F81FC0FE0
1F00F807C0
1F00F807C0
1F00F807C0
1F00F807C0
1F00F807C0
1F00F807C0
1F00F807C0
1F00F807C0
1F00F807C0
1F00F807C0
1F00F807C0
1F00F807C0
3F81FC0FE0
FFFFFFFFF8
FFFFFFFFF8
00000000F8
0000000038
0000000038
0000000018
0000000018
0000000018
ENDCHAR

STARTCHAR afii10092
ENCODING 234
SWIDTH 729 0
DWIDTH 28 0
BBX 26 18 1 0
BITMAP
7FFF8000
7FFF8000
787E0000
F07C0000
E07C0000
C07C0000
007C0000
007FFC00
007FFF00
007C1F80
007C0FC0
007C0FC0
007C0FC0
007C0FC0
007C0FC0
00FE1F80
03FFFF00
03FFFC00
ENDCHAR

STARTCHAR afii10093
ENCODING 235
SWIDTH 833 0
DWIDTH 32 0
BBX 31 18 0 0
BITMAP
FFE00FFE
FFE00FFE
3F8003F8
1F8001F0
1F0001F0
1F0001F0
1F0001F0
1FFF01F0
1FFFC1F0
1F07E1F0
1F07F1F0
1F03F1F0
1F03F1F0
1F03F1F0
1F03F1F0
3F87E3F8
FFFFCFFE
FFFF0FFE
ENDCHAR

STARTCHAR afii10094
ENCODING 236
SWIDTH 563 0
DWIDTH 21 0
BBX 20 18 0 0
BITMAP
FFE000
FFE000
3F8000
1F0000
1F0000
1F0000
1F0000
1FFF00
1FFFC0
1F07E0
1F03F0
1F03F0
1F03F0
1F03F0
1F03F0
3F87E0
FFFFC0
FFFF00
ENDCHAR

STARTCHAR afii10095
ENCODING 237
SWIDTH 521 0
DWIDTH 20 0
BBX 17 18 1 0
BITMAP
0FE000
7FF800
7C3E00
783F00
701F00
601F80
001F80
001F80
03FF80
03FF80
001F80
001F80
301F80
781F00
FC1F00
7C3E00
7E7C00
1FF000
ENDCHAR

STARTCHAR afii10096
ENCODING 238
SWIDTH 854 0
DWIDTH 32 0
BBX 30 18 1 0
BITMAP
FFE03F00
FFE1FFC0
3F83E3E0
1F07C1F0
1F0781F8
1F0F80F8
1F0F80FC
1F1F80FC
1FFF80FC
1FFF80FC
1F1F80FC
1F0F80FC
1F0FC0F8
1F0FC0F8
1F07C1F0
3F83E3E0
FFE1FFC0
FFE03E00
ENDCHAR

STARTCHAR afii10097
ENCODING 239
SWIDTH 604 0
DWIDTH 23 0
BBX 22 18 1 0
BITMAP
03FFFC
0FFFFC
1F83F0
3F03E0
3F03E0
3F03E0
3F03E0
1F83E0
0FFFE0
01FFE0
07E3E0
0FC3E0
1F83E0
3F83E0
3F03E0
7F07F0
FE1FFC
FC1FFC
ENDCHAR

STARTCHAR afii61352
ENCODING 240
SWIDTH 1115 0
DWIDTH 42 0
BBX 39 26 1 0
BITMAP
7FE003E000
7FE007F000
0FF007F000
07F80FF000
07F80FE000
07FC0C0000
07FC0C03E0
06FE0C0FF8
06FF0C1E3C
067F0C1E1C
067F8C3C1E
063FCC3C1E
061FCC3C1E
061FEC3C1E
060FFC3C1E
0607FC3C1E
0607FC1E1C
0603FC1E3C
0601FC0FF8
0601FC03C0
6600FC0000
FE007C0000
FE007C0000
FC003C1FFE
FC001C1FFE
70001C1FFE
ENDCHAR

STARTCHAR afii10071
ENCODING 241
SWIDTH 521 0
DWIDTH 20 0
BBX 18 26 1 0
BITMAP
1C0E00
3E1F00
3E1F00
3E1F00
1C0E00
000000
000000
000000
03F800
0FFE00
1E1F00
3C1F80
7C0F80
780FC0
7FFFC0
FFFFC0
FC0000
FC0000
FC0000
FE0000
7F0080
7F83C0
7FFF80
3FFF00
0FFC00
03F000
ENDCHAR

STARTCHAR afii10099
ENCODING 242
SWIDTH 594 0
DWIDTH 23 0
BBX 20 33 1 -7
BITMAP
0F0000
FF0000
FF0000
3F0000
1F0000
FFFFE0
FFFFE0
1F0000
1F0000
1F0000
1F0F80
1F3FC0
1F7FE0
1FC7E0
1F03F0
1F03F0
1F03F0
1F03F0
1F03F0
1F03F0
1F03F0
1F03F0
1F03E0
3F83E0
FFC3E0
FFC3C0
0007C0
000780
000700
000E00
001C00
003800
001000
ENDCHAR

STARTCHAR afii10100
ENCODING 243
SWIDTH 542 0
DWIDTH 21 0
BBX 19 28 1 0
BITMAP
003E00
007E00
007C00
00F800
00F000
01E000
01C000
018000
000000
000000
FFFFE0
FFFFE0
3F03E0
1F01E0
1F00E0
1F0060
1F0000
1F0000
1F0000
1F0000
1F0000
1F0000
1F0000
1F0000
1F0000
3F8000
FFE000
FFE000
ENDCHAR

STARTCHAR afii10101
ENCODING 244
SWIDTH 521 0
DWIDTH 20 0
BBX 17 18 2 0
BITMAP
07FE00
1F1F00
3E0F00
7C0700
FC0300
FC0000
FC0000
FFE000
FFE000
FC0000
FC0000
FC0000
FC0F00
7C1F80
3C1F00
1E3F00
0FFE00
01F800
ENDCHAR

STARTCHAR afii10102
ENCODING 245
SWIDTH 458 0
DWIDTH 17 0
BBX 15 18 1 0
BITMAP
0FE0
3FFC
787C
F01C
F00C
FC00
FF80
7FE0
7FF8
3FFC
0FFE
01FE
C03E
E01E
F01E
FC3C
7FF8
0FE0
ENDCHAR

STARTCHAR afii10103
ENCODING 246
SWIDTH 333 0
DWIDTH 13 0
BBX 11 26 1 0
BITMAP
1E00
3F00
3F00
3F00
3F00
1E00
0000
0000
0000
1F00
FF00
FF00
7F00
1F00
1F00
1F00
1F00
1F00
1F00
1F00
1F00
1F00
3F00
3F80
FFE0
FFE0
ENDCHAR

STARTCHAR afii10104
ENCODING 247
SWIDTH 333 0
DWIDTH 13 0
BBX 13 25 0 0
BITMAP
7070
F8F8
F8F8
F8F8
7070
0000
0000
0180
0F80
7F80
7F80
3F80
0F80
0F80
0F80
0F80
0F80
0F80
0F80
0F80
0F80
1F80
1FC0
7FF0
7FF0
ENDCHAR

STARTCHAR afii10105
ENCODING 248
SWIDTH 313 0
DWIDTH 12 0
BBX 9 33 0 -7
BITMAP
0F00
1F80
1F80
1F80
1F80
0F00
0000
0000
0000
0F80
7F80
7F80
3F80
0F80
0F80
0F80
0F80
0F80
0F80
0F80
0F80
0F80
0F80
0F80
0F80
0F80
0F80
1F00
3E00
3C00
7800
F000
6000
ENDCHAR

STARTCHAR afii10106
ENCODING 249
SWIDTH 854 0
DWIDTH 32 0
BBX 30 18 1 0
BITMAP
3FFFF800
3FFFF800
0E07E000
0607C000
0607C000
0607C000
0607C000
0607FFC0
0607FFF0
0607C1F8
0607C0FC
0407C0FC
0C07C0FC
4C07C0FC
FC0FC0FC
FC1FC1F8
F83FFFF0
703FFFC0
ENDCHAR

STARTCHAR afii10107
ENCODING 250
SWIDTH 854 0
DWIDTH 32 0
BBX 30 18 1 0
BITMAP
FF9FFC00
FF9FFC00
7F07F000
3E03E000
3E03E000
3E03E000
3E03E000
3FFFFFC0
3FFFFFF0
3E03E1F8
3E03E0FC
3E03E0FC
3E03E0FC
3E03E0FC
3E03E0FC
7F07E1F8
FF9FFFF0
FF9FFFC0
ENDCHAR

STARTCHAR afii10108
ENCODING 251
SWIDTH 625 0
DWIDTH 24 0
BBX 23 27 1 0
BITMAP
070000
3F0000
FF0000
7F0000
3F0000
1F0000
1F0000
FFFFE0
FFFFE0
1F0000
1F0000
1F0000
1F0F80
1F3FE0
1F7FF0
1FC3F0
1F83F0
1F01F0
1F01F0
1F01F0
1F01F0
1F01F0
1F01F0
1F01F0
3F83F8
FFCFFE
FFCFFE
ENDCHAR

STARTCHAR afii10109
ENCODING 252
SWIDTH 604 0
DWIDTH 23 0
BBX 22 27 1 0
BITMAP
001F80
001F80
001F00
003E00
003C00
007800
007000
006000
000000
FFE0F8
FFE1F8
3F81F8
1F03F8
1F0700
1F0600
1F0C00
1F1C00
1FFF00
1FFF80
1F3F80
1F1FC0
1F0FC0
1F07E0
1F07F0
3F83F0
FFE3FC
FFE1FC
ENDCHAR

STARTCHAR section
ENCODING 253
SWIDTH 573 0
DWIDTH 22 0
BBX 19 34 1 -8
BITMAP
01FC00
0FFF80
1E3FC0
3C1FC0
6C0FE0
6E07C0
CE0380
CF0000
C78000
C7C000
E3C000
E1E000
70F000
70F800
787C00
3C3E00
1E1F00
1F0F80
0F8780
07C3C0
03E1C0
01E1E0
00F0E0
0078E0
003860
001C60
001E60
780E60
FC06C0
FC06C0
FE0780
7F0F00
3FFE00
07F000
ENDCHAR

STARTCHAR afii10110
ENCODING 254
SWIDTH 542 0
DWIDTH 21 0
BBX 21 33 0 -7
BITMAP
020080
0F01C0
0F03E0
0F83E0
0783C0
03FF80
007C00
000000
FFE3F8
FFE3F8
3F80F0
1F80E0
1F80E0
0FC0C0
0FC0C0
07E180
07E180
03F300
03F300
01FE00
01FE00
00FC00
00FC00
007C00
007800
003800
003000
183000
3C6000
3FE000
3FC000
1F8000
0F0000
ENDCHAR

STARTCHAR afii10193
ENCODING 255
SWIDTH 612 0
DWIDTH 23 0
BBX 22 23 1 -5
BITMAP
FFDFFC
FFDFFC
3F07F0
1F07E0
1F03E0
1F03E0
1F03E0
1F03E0
1F03E0
1F03E0
1F03E0
1F03E0
1F03E0
1F07E0
1F07E0
7F8FF0
FFFFFC
FFFFFC
00FC00
00FC00
00FC00
00FC00
00FC00
ENDCHAR
ENDFONT
